<?xml version="1.0" encoding="UTF-8" standalone="no"?>
<!-- Created with Inkscape (http://www.inkscape.org/) -->

<svg
   version="1.1"
   id="svg1"
   width="1889.92"
   height="1889.92"
   viewBox="0 0 1889.92 1889.92"
   sodipodi:docname="BZHLKRT_Logo_Vektoren_HNNVR - Kopie.svg"
   inkscape:version="1.4 (86a8ad7, 2024-10-11)"
   xmlns:inkscape="http://www.inkscape.org/namespaces/inkscape"
   xmlns:sodipodi="http://sodipodi.sourceforge.net/DTD/sodipodi-0.dtd"
   xmlns="http://www.w3.org/2000/svg"
   xmlns:svg="http://www.w3.org/2000/svg">
  <defs
     id="defs1">
    <clipPath
       clipPathUnits="userSpaceOnUse"
       id="clipPath4">
      <path
         d="M 0,0 H 1418 V 1418 H 0 Z"
         id="path4" />
    </clipPath>
    <clipPath
       clipPathUnits="userSpaceOnUse"
       id="clipPath5">
      <path
         d="M 0,0 H 1418 V 1418 H 0 Z"
         id="path5" />
    </clipPath>
    <clipPath
       clipPathUnits="userSpaceOnUse"
       id="clipPath6">
      <path
         d="M 0,0 H 1418 V 1418 H 0 Z"
         id="path6" />
    </clipPath>
    <clipPath
       clipPathUnits="userSpaceOnUse"
       id="clipPath10">
      <path
         d="M 0,0 H 1418 V 1418 H 0 Z"
         id="path10" />
    </clipPath>
    <clipPath
       clipPathUnits="userSpaceOnUse"
       id="clipPath11">
      <path
         d="M 0,0 H 1418 V 1418 H 0 Z"
         id="path11" />
    </clipPath>
    <clipPath
       clipPathUnits="userSpaceOnUse"
       id="clipPath12">
      <path
         d="M 0,0 H 1418 V 1418 H 0 Z"
         id="path12" />
    </clipPath>
    <clipPath
       clipPathUnits="userSpaceOnUse"
       id="clipPath13">
      <path
         d="M 0,0 H 1418 V 1418 H 0 Z"
         id="path13" />
    </clipPath>
  </defs>
  <sodipodi:namedview
     id="namedview1"
     pagecolor="#505050"
     bordercolor="#eeeeee"
     borderopacity="1"
     inkscape:showpageshadow="0"
     inkscape:pageopacity="0"
     inkscape:pagecheckerboard="0"
     inkscape:deskcolor="#505050"
     inkscape:zoom="0.63336011"
     inkscape:cx="944.96004"
     inkscape:cy="944.96004"
     inkscape:window-width="2560"
     inkscape:window-height="1377"
     inkscape:window-x="-8"
     inkscape:window-y="-8"
     inkscape:window-maximized="1"
     inkscape:current-layer="g1">
    <inkscape:page
       x="0"
       y="0"
       inkscape:label="1"
       id="page1"
       width="1889.92"
       height="1889.92"
       margin="0"
       bleed="0" />
  </sodipodi:namedview>
  <g
     id="g1"
     inkscape:groupmode="layer"
     inkscape:label="1">
    <path
       id="path1"
       d="m 874.14,579.887 c 0,0 31.379,-45.417 32.101,-71.058 0.722,-25.641 7.092,-47.264 0.094,-61.45 -6.997,-14.185 -28.963,-47.672 -42.394,-54.953 -13.43,-7.281 -20.993,-10.494 -32.687,-14.908 -11.694,-4.415 -31.861,-22.304 -43.639,-26.802 -11.778,-4.499 -20.899,-4.373 -29.643,-7.491 -8.745,-3.117 -16.925,-10.168 -28.786,-10.942 -11.862,-0.774 -30.397,-1.716 -50.124,-2.092 -19.728,-0.377 -23.995,-7.867 -40.229,-4.666 -16.234,3.201 -40.292,11.57 -55.187,21.299 -39.308,-20.253 -181.02,-96.83 -181.02,-96.83 -32.007,16.32 -133.845,134.846 -190.004,231.865 25.763,17.826 125.346,98.028 125.346,98.028 -1.837,18.841 -2.86,41.143 -2.002,63.223 1.442,37.096 57.926,209.206 61.022,220.169 3.097,10.964 8.431,15.462 8.431,15.462 0,0 -1.841,11.235 -0.753,24.542 1.088,13.307 8.326,24.563 8.326,24.563 0,0 -1.736,35.004 3.577,63.626 5.314,28.618 19.581,79.238 64.915,76.888 45.333,-2.34 54.135,-9.66 63.782,-21.84 9.647,-12.18 20.483,-22 26.634,-37.44 0,0 11.903,83.85 23.932,101.11 12.029,17.26 30.794,41.91 56.818,40.78 26.025,-1.13 35.669,-7.89 47.133,-14.44 11.464,-6.55 20.878,-13.62 20.878,-13.62 0,0 14.246,45.25 31.903,52.35 17.656,7.09 51.191,6.75 67.885,-0.97 16.694,-7.72 65.479,-48.05 75.207,-84.15 12.008,6.26 24.706,10.21 34.371,8.46 9.665,-1.76 56.274,-16.73 67.906,-30.16 11.627,-13.43 27.827,-44.62 24.707,-58.79 -3.12,-14.161 -17.93,-51.586 -17.93,-51.586 h 87.77 c 22.89,0 53.02,6.282 53.02,-38.743 0,-54.577 0.77,-254.721 0,-289.172 -0.97,-43.718 -3.6,-50.262 -47.33,-50.262 z"
       style="fill:#ffffff;fill-opacity:1;fill-rule:evenodd;stroke:none"
       transform="matrix(1.3333333,0,0,-1.3333333,0,1889.92)" />
    <path
       id="path2"
       d="m 1117.52,958.064 c 13.66,0 27.98,-5.063 27.98,-29.59 0,-24.527 -0.85,-315.299 0,-315.064 0,-21.357 -3.13,-33.523 -33.61,-33.523 H 768.905 c 0,0 -20.35,-25.479 -23.127,-32.964 0.831,-13.542 6.072,-62.548 23.864,-87.059 -3.703,-24.103 -10.43,-35.087 -6.431,-42.98 3.999,-7.894 3.262,-35.857 24.035,-33.472 20.774,2.386 65.898,18.266 78.669,33.362 12.772,15.095 32.024,57.576 31.914,54.625 -0.11,-2.952 9.822,-0.08 11.893,8.378 0.156,-17.418 3.043,-22.487 -0.722,-28.654 -3.766,-6.167 -30.219,-52.395 -41.751,-57.464 -11.532,-5.068 -31.317,-13.369 -40.198,-18.909 -8.88,-5.539 -28.179,-19.74 -36.118,-23.381 -7.939,-3.64 -15.732,-3.107 -27.722,-7.469 -11.989,-4.362 -18.281,-9.227 -26.69,-10.608 -8.41,-1.381 -53.283,-1.271 -63.121,-3.107 -9.837,-1.836 -18.436,-6.469 -26.061,-5.743 -29.853,2.84 -61.975,22.816 -63.622,22.314 -1.648,-0.502 -179.791,-96.762 -179.791,-96.762 -64.661,48.587 -142.878,149.261 -191.304,231.603 l 125.575,98.29 c 0,0 -2.432,-33.796 19.095,-59.954 21.526,-26.159 78.464,-48.534 78.464,-48.534 h -0.357 c 0,0 -31.442,102.437 -25.825,133.79 5.617,31.352 11.138,35.746 11.138,35.746 0,0 -0.41,25.766 0,46.637 0.409,20.87 10.247,43.23 10.247,43.23 0,0 -3.608,25.405 5.194,51.642 8.802,26.237 34.451,62.815 33.337,67.774 -1.114,4.959 -26.026,6.261 -30.482,10.31 -4.456,4.048 -15.25,7.814 -8.708,14.452 6.543,6.638 21.809,3.829 29.325,6.371 7.515,2.542 15.941,4.519 13.226,10.341 -2.714,5.822 -16.019,5.9 -23.142,10.592 -7.123,4.692 -17.761,9.034 -17.463,17.298 0.298,8.264 13.995,2.348 23.064,4.781 9.069,2.432 13.635,6.763 9.9,12.679 -3.734,5.916 -33.513,21.074 -32.038,44.691 1.474,23.617 4.707,26.977 4.707,26.977 l 13.964,-3.55 c 0,0 11.987,-36.781 33.231,-54.529 21.244,-17.748 51.066,-33.696 60.192,-31.049 9.126,2.647 40.443,11.518 44.475,38.482 h 101.216 c 0,0 22.703,-18.606 37.044,-17.962 14.341,0.643 39.099,2.328 55.276,17.962 12.802,0.947 40.809,0.868 40.809,0.868 0,0 6.07,-7.061 21.298,-6.026 15.228,1.036 30.51,5.158 30.51,5.158 h 47.478 c 0,0 14.937,-6.711 22.954,-7.464 8.018,-0.754 19.519,-4.065 27.881,-0.958 8.363,3.107 28.433,8.422 28.433,8.422 0,0 115.44,0.563 114.88,0"
       style="fill:#30986d;fill-opacity:0.1;fill-rule:evenodd;stroke:none"
       transform="matrix(1.3333333,0,0,-1.3333333,0,1889.92)" />
    <path
       id="path3"
       d="m 796.431,481.875 c 3.107,11.502 10.465,22.314 25.7,34.051 15.235,11.738 14.796,8.443 29.607,23.742 14.812,15.3 23.363,19.741 23.363,19.741 0,0 -5.335,-25.155 -5.68,-34.193 -0.345,-9.039 0.361,-8.411 11.61,-11.942 11.25,-3.53 13.588,0.173 13.588,0.173 0,0 4.629,-10.341 -1.083,-16.351 -5.711,-6.01 -24.947,-5.869 -35.569,-9.102 -10.622,-3.232 -33.027,-19.207 -41.751,-16.272 -8.723,2.934 -22.891,-1.35 -19.785,10.153 z"
       style="fill:#30986d;fill-opacity:0.1;fill-rule:evenodd;stroke:none"
       transform="matrix(1.3333333,0,0,-1.3333333,0,1889.92)" />
    <g
       opacity="0.65"
       id="g9">
      <path
         d="m 1054.15,820.872 -50.24,-240.985 c 0,0 116.49,-0.44 116.1,0 15.61,0 25.78,9.465 25.49,28.309 -0.36,23.692 0,176.349 0,176.349 z"
         style="fill:#30986d;fill-opacity:1;fill-rule:evenodd;stroke:none"
         transform="matrix(1.3333333,0,0,-1.3333333,0,1889.92)"
         clip-path="url(#clipPath4)"
         id="path7" />
      <path
         d="M 852.831,820.872 761.418,684.857 695.923,919.582 617.826,958.064 H 588.369 C 585.61,946.796 577.974,922.595 545.266,919.582 V 774.391 l 51.222,-19.805 99.435,164.996"
         style="fill:#30986d;fill-opacity:1;fill-rule:evenodd;stroke:none"
         transform="matrix(1.3333333,0,0,-1.3333333,0,1889.92)"
         clip-path="url(#clipPath5)"
         id="path8" />
      <path
         d="m 1023.03,958.064 h -23.569 c 0,0 1.959,-4.848 -31.804,-7.814 C 945.738,925.802 852.831,820.872 852.831,820.872 h 201.019 z"
         style="fill:#30986d;fill-opacity:1;fill-rule:evenodd;stroke:none"
         transform="matrix(1.3333333,0,0,-1.3333333,0,1889.92)"
         clip-path="url(#clipPath6)"
         id="path9" />
    </g>
    <g
       opacity="0.35"
       id="g17">
      <path
         d="M 948.932,715.168 1054.15,820.872 1003.86,579.887 H 985.656 Z"
         style="fill:#30986d;fill-opacity:1;fill-rule:evenodd;stroke:none"
         transform="matrix(1.3333333,0,0,-1.3333333,0,1889.92)"
         clip-path="url(#clipPath10)"
         id="path14" />
      <path
         d="M 853.422,820.872 760.799,684.011 852.763,579.887 948.932,713.394 Z"
         style="fill:#30986d;fill-opacity:1;fill-rule:evenodd;stroke:none"
         transform="matrix(1.3333333,0,0,-1.3333333,0,1889.92)"
         clip-path="url(#clipPath11)"
         id="path15" />
      <path
         d="m 596.797,754.897 82.265,-175.01 c 0,0 -105.716,-0.4 -105.716,0 -15.344,0 -28.08,7.211 -28.08,26.773 v 102.119 z"
         style="fill:#30986d;fill-opacity:1;fill-rule:evenodd;stroke:none"
         transform="matrix(1.3333333,0,0,-1.3333333,0,1889.92)"
         clip-path="url(#clipPath12)"
         id="path16" />
      <path
         d="m 1054.15,820.872 -31.12,137.192 h 97.04 c 15.77,0 25.44,-11.186 25.44,-28.721 -14.16,-16.744 -91.36,-108.471 -91.36,-108.471 z"
         style="fill:#30986d;fill-opacity:1;fill-rule:evenodd;stroke:none"
         transform="matrix(1.3333333,0,0,-1.3333333,0,1889.92)"
         clip-path="url(#clipPath13)"
         id="path17" />
    </g>
    <path
       id="path18"
       d="m 851.425,579.887 97.759,135.281 104.836,105.871 91.48,108.795"
       style="fill:none;stroke:#30986d;stroke-width:2;stroke-linecap:butt;stroke-linejoin:miter;stroke-miterlimit:10;stroke-dasharray:none;stroke-opacity:1"
       transform="matrix(1.3333333,0,0,-1.3333333,0,1889.92)" />
    <path
       id="path19"
       d="m 545.266,774.391 51.313,-19.53 83.691,-173.707 80.032,102.86 91.123,-102.86"
       style="fill:none;stroke:#30986d;stroke-width:2;stroke-linecap:butt;stroke-linejoin:miter;stroke-miterlimit:10;stroke-dasharray:none;stroke-opacity:1"
       transform="matrix(1.3333333,0,0,-1.3333333,0,1889.92)" />
    <path
       id="path20"
       d="M 708.661,945.443 695.923,919.582 596.39,754.861 545.266,708.779"
       style="fill:none;stroke:#30986d;stroke-width:2;stroke-linecap:butt;stroke-linejoin:miter;stroke-miterlimit:10;stroke-dasharray:none;stroke-opacity:1"
       transform="matrix(1.3333333,0,0,-1.3333333,0,1889.92)" />
    <path
       id="path21"
       d="M 1054.02,821.039 1003.95,579.887"
       style="fill:none;stroke:#30986d;stroke-width:2;stroke-linecap:butt;stroke-linejoin:miter;stroke-miterlimit:10;stroke-dasharray:none;stroke-opacity:1"
       transform="matrix(1.3333333,0,0,-1.3333333,0,1889.92)" />
    <path
       id="path22"
       d="M 1054.02,821.039 H 852.785 l -156.862,98.543"
       style="fill:none;stroke:#30986d;stroke-width:2;stroke-linecap:butt;stroke-linejoin:miter;stroke-miterlimit:10;stroke-dasharray:none;stroke-opacity:1"
       transform="matrix(1.3333333,0,0,-1.3333333,0,1889.92)" />
    <path
       id="path23"
       d="m 1023.03,958.064 30.99,-137.025 91.48,-36.408"
       style="fill:none;stroke:#30986d;stroke-width:2;stroke-linecap:butt;stroke-linejoin:miter;stroke-miterlimit:10;stroke-dasharray:none;stroke-opacity:1"
       transform="matrix(1.3333333,0,0,-1.3333333,0,1889.92)" />
    <path
       id="path24"
       d="M 807.87,958.064 852.811,821.039 947.887,715.168 984.936,579.887"
       style="fill:none;stroke:#30986d;stroke-width:2;stroke-linecap:butt;stroke-linejoin:miter;stroke-miterlimit:10;stroke-dasharray:none;stroke-opacity:1"
       transform="matrix(1.3333333,0,0,-1.3333333,0,1889.92)" />
    <path
       id="path25"
       d="m 617.826,958.064 78.097,-38.482 25.221,-92.471"
       style="fill:none;stroke:#30986d;stroke-width:2;stroke-linecap:butt;stroke-linejoin:miter;stroke-miterlimit:10;stroke-dasharray:none;stroke-opacity:1"
       transform="matrix(1.3333333,0,0,-1.3333333,0,1889.92)" />
    <path
       id="path26"
       d="m 735.523,774.391 24.649,-90.377 92.543,137.063 114.188,128.404"
       style="fill:none;stroke:#30986d;stroke-width:2;stroke-linecap:butt;stroke-linejoin:miter;stroke-miterlimit:10;stroke-dasharray:none;stroke-opacity:1"
       transform="matrix(1.3333333,0,0,-1.3333333,0,1889.92)" />
    <path
       id="path27"
       d="m 1145.5,933.689 c 0,13.453 -10.92,24.375 -24.37,24.375 H 569.641 c -13.453,0 -24.375,-10.922 -24.375,-24.375 V 604.262 c 0,-13.453 10.922,-24.375 24.375,-24.375 h 551.489 c 13.45,0 24.37,10.922 24.37,24.375 z"
       style="fill:none;stroke:#30986d;stroke-width:5;stroke-linecap:butt;stroke-linejoin:miter;stroke-miterlimit:10;stroke-dasharray:none;stroke-opacity:1"
       transform="matrix(1.3333333,0,0,-1.3333333,0,1889.92)" />
    <path
       id="path28"
       d="m 695.923,822.796 c 0,5.665 -4.599,10.264 -10.264,10.264 h -54.096 c -5.665,0 -10.264,-4.599 -10.264,-10.264 v -38.141 c 0,-5.664 4.599,-10.264 10.264,-10.264 h 54.096 c 5.665,0 10.264,4.6 10.264,10.264 z"
       style="fill:#ffffff;fill-opacity:1;fill-rule:evenodd;stroke:#30986d;stroke-width:3;stroke-linecap:butt;stroke-linejoin:miter;stroke-miterlimit:10;stroke-dasharray:none;stroke-opacity:1"
       transform="matrix(1.3333333,0,0,-1.3333333,0,1889.92)" />
    <path
       id="path29"
       d="M 695.923,795.316 H 666.875"
       style="fill:none;stroke:#30986d;stroke-width:3;stroke-linecap:butt;stroke-linejoin:miter;stroke-miterlimit:10;stroke-dasharray:none;stroke-opacity:1"
       transform="matrix(1.3333333,0,0,-1.3333333,0,1889.92)" />
    <path
       id="path30"
       d="M 644.584,795.316 H 621.299"
       style="fill:none;stroke:#30986d;stroke-width:3;stroke-linecap:butt;stroke-linejoin:miter;stroke-miterlimit:10;stroke-dasharray:none;stroke-opacity:1"
       transform="matrix(1.3333333,0,0,-1.3333333,0,1889.92)" />
    <path
       id="path31"
       d="M 644.584,814.068 H 621.299"
       style="fill:none;stroke:#30986d;stroke-width:3;stroke-linecap:butt;stroke-linejoin:miter;stroke-miterlimit:10;stroke-dasharray:none;stroke-opacity:1"
       transform="matrix(1.3333333,0,0,-1.3333333,0,1889.92)" />
    <path
       id="path32"
       d="m 655.229,783.829 v -9.438"
       style="fill:none;stroke:#30986d;stroke-width:3;stroke-linecap:butt;stroke-linejoin:miter;stroke-miterlimit:10;stroke-dasharray:none;stroke-opacity:1"
       transform="matrix(1.3333333,0,0,-1.3333333,0,1889.92)" />
    <path
       id="path33"
       d="m 655.295,833.06 v -5.764 h -10.711 v -43.467 h 22.468 v 30.087 h 28.871"
       style="fill:none;stroke:#30986d;stroke-width:3;stroke-linecap:butt;stroke-linejoin:miter;stroke-miterlimit:10;stroke-dasharray:none;stroke-opacity:1"
       transform="matrix(1.3333333,0,0,-1.3333333,0,1889.92)" />
    <path
       id="path34"
       d="m 1090.19,620.591 14.76,36.714 h 8.61 l 8.75,-36.673 h -9.45 l -0.95,5.746 h -9.45 l -2.54,-5.787 z m 14.11,12.909 5.81,-0.005 -2.16,11.26 z"
       style="fill:#ffffff;fill-opacity:1;fill-rule:evenodd;stroke:#30986d;stroke-width:1.7159;stroke-linecap:butt;stroke-linejoin:miter;stroke-miterlimit:10;stroke-dasharray:none;stroke-opacity:1"
       transform="matrix(1.3333333,0,0,-1.3333333,0,1889.92)" />
    <path
       id="path35"
       d="m 1091.4,649.821 0.42,7.484 c 0,0 -7.79,-0.02 -12.01,0 -4.22,0.02 -10.32,-3.494 -10.97,-9.229 -0.65,-5.735 11.52,-15.177 11.26,-16.972 -0.25,-1.795 -14.58,-1.006 -14.58,-1.006 v -9.466 c 0,0 8.38,-0.092 12.43,0 4.06,0.092 11.45,2.995 11.98,10.795 0.53,7.799 -12.18,13.032 -11.47,15.729 0.71,2.697 7.69,2.472 12.94,2.665 z"
       style="fill:#ffffff;fill-opacity:1;fill-rule:evenodd;stroke:#30986d;stroke-width:1.7159;stroke-linecap:butt;stroke-linejoin:miter;stroke-miterlimit:10;stroke-dasharray:none;stroke-opacity:1"
       transform="matrix(1.3333333,0,0,-1.3333333,0,1889.92)" />
    <path
       id="path36"
       d="m 1051,620.632 7.14,36.673 h 8.2 l -6.4,-36.673 z"
       style="fill:#ffffff;fill-opacity:1;fill-rule:evenodd;stroke:#30986d;stroke-width:1.7159;stroke-linecap:butt;stroke-linejoin:miter;stroke-miterlimit:10;stroke-dasharray:none;stroke-opacity:1"
       transform="matrix(1.3333333,0,0,-1.3333333,0,1889.92)" />
    <path
       id="path37"
       d="m 1053.99,657.305 -10.97,-36.673 h -10.43 c 0,0 -11.56,32.55 -11.85,32.609 -0.29,0.058 -4.63,2.122 -4.63,2.122 l 0.31,1.942 h 12.71 l 8.19,-22.966 7.91,22.966 z"
       style="fill:#ffffff;fill-opacity:1;fill-rule:evenodd;stroke:#30986d;stroke-width:1.616;stroke-linecap:butt;stroke-linejoin:miter;stroke-miterlimit:10;stroke-dasharray:none;stroke-opacity:1"
       transform="matrix(1.3333333,0,0,-1.3333333,0,1889.92)" />
    <path
       id="path38"
       d="m 978.515,632.718 -2.112,-12.086 h -8.933 l 6.322,32.499 -4.331,1.304 0.357,2.87 h 12.993 l -1.996,-11.425 13.315,11.425 h 11.52 l -19.754,-18.357 13.152,-18.316 -11.725,-0.118 z"
       style="fill:#ffffff;fill-opacity:1;fill-rule:evenodd;stroke:#30986d;stroke-width:1.7159;stroke-linecap:butt;stroke-linejoin:miter;stroke-miterlimit:10;stroke-dasharray:none;stroke-opacity:1"
       transform="matrix(1.3333333,0,0,-1.3333333,0,1889.92)" />
    <path
       id="path39"
       d="m 965.835,635.588 c -2.003,-6.699 -6.288,-14.035 -15.11,-15.004 -6.287,-0.691 -12.294,3.775 -13.147,11.537 -0.853,7.762 3.532,24.341 16.367,25.751 12.834,1.41 13.185,-8.369 13.49,-11.143 0.075,-0.68 0.047,-2.494 -0.268,-4.871 -3.11,0 -6.658,-0.184 -9.061,-0.184 0.332,1.491 0.66,7.525 -3.71,7.581 -4.369,0.057 -7.07,-8.651 -7.368,-12.914 -0.299,-4.263 1.362,-7.069 3.502,-7.096 3.004,-0.039 4.758,2.86 5.926,6.364 z"
       style="fill:#ffffff;fill-opacity:1;fill-rule:evenodd;stroke:#30986d;stroke-width:1.9085;stroke-linecap:butt;stroke-linejoin:miter;stroke-miterlimit:10;stroke-dasharray:none;stroke-opacity:1"
       transform="matrix(1.3333333,0,0,-1.3333333,0,1889.92)" />
    <path
       id="path40"
       d="m 908.743,620.632 6.305,32.413 -7.075,1.253 0.517,3.007 h 30.956 l -2.27,-8.108 -14.321,-0.106 -0.623,-3.417 11.053,-0.026 -1.731,-8.118 -10.946,-0.117 -2.932,-16.781 z"
       style="fill:#ffffff;fill-opacity:1;fill-rule:evenodd;stroke:#30986d;stroke-width:1.7159;stroke-linecap:butt;stroke-linejoin:miter;stroke-miterlimit:10;stroke-dasharray:none;stroke-opacity:1"
       transform="matrix(1.3333333,0,0,-1.3333333,0,1889.92)" />
    <path
       id="path41"
       d="m 904.625,980.132 c -4.424,-4.643 -11.448,-10.772 -19.424,-15.103 -18.232,-9.9 -25.417,-11.623 -38.252,-11.504 -7.391,0.069 -33.977,2.491 -51.787,27.089 -1.123,1.552 -2.714,-33.639 -58.968,-40.596 -15.826,-1.957 -27.592,3.558 -51.024,21.786 -50.867,0 -96.317,2.921 -96.761,-1.832 -1.532,-16.436 -13.539,-37.996 -43.143,-40.39 -66.387,9.614 -86.961,65.551 -94.158,84.448 l -30.396,6.73 c 5.313,28.62 15.438,59.95 60.772,57.6 45.333,-2.34 54.135,-9.66 63.782,-21.84 9.647,-12.18 20.483,-22 26.634,-37.44 0,0 11.903,83.85 23.932,101.11 12.029,17.26 30.794,41.91 56.818,40.78 26.025,-1.13 35.669,-7.89 47.133,-14.44 11.464,-6.55 20.878,-13.62 20.878,-13.62 0,0 14.246,45.25 31.903,52.35 17.656,7.09 51.191,6.75 67.885,-0.97 16.694,-7.72 65.479,-48.05 75.207,-84.15 12.008,6.26 24.706,10.21 34.371,8.46 9.665,-1.76 56.274,-16.73 67.906,-30.16 11.627,-13.43 27.827,-44.62 24.707,-58.79 0,0 -0.54,-37.595 -16.33,-47.846 -15.782,-10.251 -33.606,-13.165 -45.076,-11.879 -7.437,0.835 -22.592,0.068 -36.505,7.998 -7.543,4.3 -14.72,11.156 -20.104,22.209 z"
       style="fill:#ffffff;fill-opacity:1;fill-rule:evenodd;stroke:none"
       transform="matrix(1.3333333,0,0,-1.3333333,0,1889.92)" />
    <path
       id="path42"
       d="m 740.268,828.076 c 5.535,-5.388 9.114,-13.925 9.114,-23.527 0,-9.642 -3.608,-18.21 -9.183,-23.594"
       style="fill:none;stroke:#30986d;stroke-width:3.1917;stroke-linecap:butt;stroke-linejoin:miter;stroke-miterlimit:10;stroke-dasharray:none;stroke-opacity:1"
       transform="matrix(1.3333333,0,0,-1.3333333,0,1889.92)" />
    <path
       id="path43"
       d="m 731.139,820.685 c 3.213,-3.697 5.291,-9.556 5.291,-16.146 0,-6.618 -2.095,-12.498 -5.331,-16.193"
       style="fill:none;stroke:#30986d;stroke-width:3;stroke-linecap:butt;stroke-linejoin:miter;stroke-miterlimit:10;stroke-dasharray:none;stroke-opacity:1"
       transform="matrix(1.3333333,0,0,-1.3333333,0,1889.92)" />
    <path
       id="path44"
       d="m 723.041,815.935 c 2.126,-2.612 3.5,-6.749 3.5,-11.403 0,-4.673 -1.385,-8.826 -3.526,-11.435"
       style="fill:none;stroke:#30986d;stroke-width:3;stroke-linecap:butt;stroke-linejoin:miter;stroke-miterlimit:10;stroke-dasharray:none;stroke-opacity:1"
       transform="matrix(1.3333333,0,0,-1.3333333,0,1889.92)" />
    <path
       id="path45"
       d="m 714.26,812.58 c 1.406,-1.844 2.315,-4.766 2.315,-8.053 0,-3.3 -0.916,-6.232 -2.332,-8.075"
       style="fill:none;stroke:#30986d;stroke-width:3;stroke-linecap:butt;stroke-linejoin:miter;stroke-miterlimit:10;stroke-dasharray:none;stroke-opacity:1"
       transform="matrix(1.3333333,0,0,-1.3333333,0,1889.92)" />
    <path
       id="path46"
       d="m 874.14,579.887 c 0,0 31.379,-45.417 32.101,-71.058 0.722,-25.641 7.092,-47.264 0.094,-61.45 -6.997,-14.185 -28.963,-47.672 -42.394,-54.953 -13.43,-7.281 -20.993,-10.494 -32.687,-14.908 -11.694,-4.415 -31.861,-22.304 -43.639,-26.802 -11.778,-4.499 -20.899,-4.373 -29.643,-7.491 -8.745,-3.117 -16.925,-10.168 -28.786,-10.942 -11.862,-0.774 -30.397,-1.716 -50.124,-2.092 -19.728,-0.377 -23.995,-7.867 -40.229,-4.666 -16.234,3.201 -40.292,11.57 -55.187,21.299 -39.308,-20.253 -181.02,-96.83 -181.02,-96.83 -32.007,16.32 -133.845,134.846 -190.004,231.865 25.763,17.826 125.346,98.028 125.346,98.028 -1.837,18.841 -2.86,41.143 -2.002,63.223 1.442,37.096 57.926,209.206 61.022,220.169 3.097,10.964 8.431,15.462 8.431,15.462 0,0 -1.841,11.235 -0.753,24.542 1.088,13.307 8.326,24.563 8.326,24.563 0,0 -1.736,35.004 3.577,63.626 5.314,28.618 19.581,79.238 64.915,76.888 45.333,-2.34 54.135,-9.66 63.782,-21.84 9.647,-12.18 20.483,-22 26.634,-37.44 0,0 11.903,83.85 23.932,101.11 12.029,17.26 30.794,41.91 56.818,40.78 26.025,-1.13 35.669,-7.89 47.133,-14.44 11.464,-6.55 20.878,-13.62 20.878,-13.62 0,0 14.246,45.25 31.903,52.35 17.656,7.09 51.191,6.75 67.885,-0.97 16.694,-7.72 65.479,-48.05 75.207,-84.15 12.008,6.26 24.706,10.21 34.371,8.46 9.665,-1.76 56.274,-16.73 67.906,-30.16 11.627,-13.43 27.827,-44.62 24.707,-58.79 0,0 -0.54,-37.595 -16.33,-47.846 -15.782,-10.251 -33.606,-13.165 -45.076,-11.879 -11.469,1.287 -41.295,-1.234 -56.609,30.207"
       style="fill:none;stroke:#30986d;stroke-width:5;stroke-linecap:butt;stroke-linejoin:miter;stroke-miterlimit:10;stroke-dasharray:none;stroke-opacity:1"
       transform="matrix(1.3333333,0,0,-1.3333333,0,1889.92)" />
    <path
       id="path47"
       d="m 451.108,1004.03 c 7.197,-18.897 27.771,-74.834 94.158,-84.448 38.166,3.086 47.085,38.027 42.017,52.777 -5.068,14.751 -15.086,38.401 -15.086,38.401"
       style="fill:none;stroke:#30986d;stroke-width:5;stroke-linecap:butt;stroke-linejoin:miter;stroke-miterlimit:10;stroke-dasharray:none;stroke-opacity:1"
       transform="matrix(1.3333333,0,0,-1.3333333,0,1889.92)" />
    <path
       id="path48"
       d="M 422.824,980.132 C 435,965.528 457.091,943.392 482.781,951.761"
       style="fill:none;stroke:#30986d;stroke-width:5;stroke-linecap:butt;stroke-linejoin:miter;stroke-miterlimit:10;stroke-dasharray:none;stroke-opacity:1"
       transform="matrix(1.3333333,0,0,-1.3333333,0,1889.92)" />
    <path
       id="path49"
       d="m 542.22,428.485 c 10.418,33.623 26.719,77.184 46.36,93.765 19.642,16.581 32.654,38.628 50.87,57.442"
       style="fill:none;stroke:#30986d;stroke-width:5;stroke-linecap:butt;stroke-linejoin:miter;stroke-miterlimit:10;stroke-dasharray:none;stroke-opacity:1"
       transform="matrix(1.3333333,0,0,-1.3333333,0,1889.92)" />
    <path
       id="path50"
       d="m 482.781,866.951 c -35.078,0.9 -66.541,5.314 -77.315,11.947"
       style="fill:none;stroke:#30986d;stroke-width:5;stroke-linecap:butt;stroke-linejoin:miter;stroke-miterlimit:10;stroke-dasharray:none;stroke-opacity:1"
       transform="matrix(1.3333333,0,0,-1.3333333,0,1889.92)" />
    <path
       id="path51"
       d="m 534.271,388 c 11.693,-6.047 20.877,-13.474 28.074,-21.216 7.196,-7.741 8.953,-12.951 19.915,-19.102"
       style="fill:none;stroke:#30986d;stroke-width:5;stroke-linecap:butt;stroke-linejoin:miter;stroke-miterlimit:10;stroke-dasharray:none;stroke-opacity:1"
       transform="matrix(1.3333333,0,0,-1.3333333,0,1889.92)" />
    <path
       id="path52"
       d="m 500.097,971.114 c -3.253,13.231 14.205,40.616 28.012,39.646 13.807,-0.97 33.001,-18.766 40.731,-26.026 -17.562,-8.505 -40.825,-13.024 -68.743,-13.62 z"
       style="fill:none;stroke:#30986d;stroke-width:5;stroke-linecap:butt;stroke-linejoin:miter;stroke-miterlimit:10;stroke-dasharray:none;stroke-opacity:1"
       transform="matrix(1.3333333,0,0,-1.3333333,0,1889.92)" />
    <path
       id="path53"
       d="m 769.807,579.923 c 0,0 -35.435,-36.259 -32.037,-57.673 3.398,-21.414 6.264,-38.843 17.121,-63.301"
       style="fill:none;stroke:#30986d;stroke-width:5;stroke-linecap:butt;stroke-linejoin:miter;stroke-miterlimit:10;stroke-dasharray:none;stroke-opacity:1"
       transform="matrix(1.3333333,0,0,-1.3333333,0,1889.92)" />
    <path
       id="path54"
       d="m 895.844,1089.53 c 0,0 20.8,-55.28 20.125,-76 -0.675,-20.709 -5.725,-34.903 -30.768,-48.501 -18.232,-9.9 -25.417,-11.623 -38.252,-11.504 -8.517,0.08 -42.52,3.283 -59.214,39.94 -16.694,36.655 -18.263,72.795 -31.709,92.235 -13.446,19.44 -34.957,37.79 -34.957,37.79"
       style="fill:none;stroke:#30986d;stroke-width:5;stroke-linecap:butt;stroke-linejoin:miter;stroke-miterlimit:10;stroke-dasharray:none;stroke-opacity:1"
       transform="matrix(1.3333333,0,0,-1.3333333,0,1889.92)" />
    <path
       id="path55"
       d="m 643.372,1048.17 c 4.394,-17.63 17.385,-69.476 41.798,-86.366 24.414,-16.89 35.146,-23.261 51.024,-21.786 15.878,1.475 43.843,3.934 58.968,40.114"
       style="fill:none;stroke:#30986d;stroke-width:5;stroke-linecap:butt;stroke-linejoin:miter;stroke-miterlimit:10;stroke-dasharray:none;stroke-opacity:1"
       transform="matrix(1.3333333,0,0,-1.3333333,0,1889.92)" />
    <path
       id="path56"
       d="m 433.478,919.582 -19.393,8.923"
       style="fill:none;stroke:#30986d;stroke-width:5;stroke-linecap:butt;stroke-linejoin:miter;stroke-miterlimit:10;stroke-dasharray:none;stroke-opacity:1"
       transform="matrix(1.3333333,0,0,-1.3333333,0,1889.92)" />
    <path
       id="path57"
       d="m 594.483,1062.48 c 0,0 10.622,-38.04 60.971,-51.72"
       style="fill:none;stroke:#30986d;stroke-width:5;stroke-linecap:butt;stroke-linejoin:miter;stroke-miterlimit:10;stroke-dasharray:none;stroke-opacity:1"
       transform="matrix(1.3333333,0,0,-1.3333333,0,1889.92)" />
    <path
       id="path58"
       d="m 697.822,999.098 c -1.554,26.732 19.853,57.522 36.965,55.502 17.113,-2.03 41.652,-35.8 43.011,-60.611 -30.616,3.299 -61.42,5.004 -79.976,5.109 z"
       style="fill:none;stroke:#30986d;stroke-width:5;stroke-linecap:butt;stroke-linejoin:miter;stroke-miterlimit:10;stroke-dasharray:none;stroke-opacity:1"
       transform="matrix(1.3333333,0,0,-1.3333333,0,1889.92)" />
    <path
       id="path59"
       d="m 519.844,481.001 c 19.28,19.877 49.028,53.625 62.416,82.498"
       style="fill:none;stroke:#30986d;stroke-width:5;stroke-linecap:butt;stroke-linejoin:miter;stroke-miterlimit:10;stroke-dasharray:none;stroke-opacity:1"
       transform="matrix(1.3333333,0,0,-1.3333333,0,1889.92)" />
    <path
       id="path60"
       d="m 807.787,1014.05 c 0,0 4.791,39.91 13.744,45.23 8.954,5.33 40.773,10.76 49.748,3.2 8.975,-7.56 28.692,-51.7 28.692,-51.7 0,0 -31.15,-6.73 -43.953,-5.8 -12.803,0.93 -48.231,9.07 -48.231,9.07 z"
       style="fill:none;stroke:#30986d;stroke-width:5;stroke-linecap:butt;stroke-linejoin:miter;stroke-miterlimit:10;stroke-dasharray:none;stroke-opacity:1"
       transform="matrix(1.3333333,0,0,-1.3333333,0,1889.92)" />
    <path
       id="path61"
       d="m 926.717,1004.89 c 0,0 -0.513,17.8 4.194,24.2 4.707,6.4 25.575,9.04 34.696,9.42 9.121,0.37 42.723,-19.2 43.143,-39.119 -7.44,-4.143 -18.249,-8.83 -33.144,-8.443 -14.895,0.387 -48.889,13.942 -48.889,13.942 z"
       style="fill:none;stroke:#30986d;stroke-width:5;stroke-linecap:butt;stroke-linejoin:miter;stroke-miterlimit:10;stroke-dasharray:none;stroke-opacity:1"
       transform="matrix(1.3333333,0,0,-1.3333333,0,1889.92)" />
    <path
       id="path62"
       d="m 338.92,579.923 c 0.209,-14.834 2.197,-32.848 2.197,-32.848"
       style="fill:none;stroke:#30986d;stroke-width:5;stroke-linecap:butt;stroke-linejoin:miter;stroke-miterlimit:10;stroke-dasharray:none;stroke-opacity:1"
       transform="matrix(1.3333333,0,0,-1.3333333,0,1889.92)" />
    <path
       id="path63"
       d="m 746.733,481.001 c 0,0 -9.35,-11.83 -4.245,-44.492 4.011,-25.67 15.52,-52.808 35.31,-68.668"
       style="fill:none;stroke:#30986d;stroke-width:5;stroke-linecap:butt;stroke-linejoin:miter;stroke-miterlimit:10;stroke-dasharray:none;stroke-opacity:1"
       transform="matrix(1.3333333,0,0,-1.3333333,0,1889.92)" />
    <path
       id="path64"
       d="m 708.661,471.301 c -0.473,-12.008 -0.827,-77.412 12.404,-90.552 13.231,-13.139 32.609,-23.088 32.609,-23.088"
       style="fill:none;stroke:#30986d;stroke-width:5;stroke-linecap:butt;stroke-linejoin:miter;stroke-miterlimit:10;stroke-dasharray:none;stroke-opacity:1"
       transform="matrix(1.3333333,0,0,-1.3333333,0,1889.92)" />
    <path
       id="path65"
       d="m 795.162,481.001 c 18.964,12.197 36.756,22.764 47.112,33.115 10.355,10.351 32.227,45.25 32.227,45.25 0,0 -1.778,-25.273 -8.745,-39.93 -6.966,-14.657 -27.342,-39.193 -50.95,-48.135 -10.627,3.422 -10.46,3.393 -19.644,9.7 z"
       style="fill:none;stroke:#30986d;stroke-width:5;stroke-linecap:butt;stroke-linejoin:miter;stroke-miterlimit:10;stroke-dasharray:none;stroke-opacity:1"
       transform="matrix(1.3333333,0,0,-1.3333333,0,1889.92)" />
    <path
       id="path66"
       d="m 725.834,428.485 c 0,0 -4.509,12.785 -4.765,30.464 -0.256,17.678 11.326,46.819 17.974,55.167"
       style="fill:none;stroke:#30986d;stroke-width:5;stroke-linecap:butt;stroke-linejoin:miter;stroke-miterlimit:10;stroke-dasharray:none;stroke-opacity:1"
       transform="matrix(1.3333333,0,0,-1.3333333,0,1889.92)" />
    <text
       id="text66"
       xml:space="preserve"
       transform="matrix(1.3333333,0,0,1.3333333,751.49467,1016.2587)"><tspan
         id="tspan66"
         style="font-variant:normal;font-weight:normal;font-stretch:condensed;font-size:25px;font-family:Impact;writing-mode:lr-tb;fill:#30986d;fill-opacity:1;fill-rule:nonzero;stroke:none"
         x="0"
         dx="0 -0.0049999999 -0.0125"
         y="0">ANTI</tspan></text>
    <text
       id="text67"
       xml:space="preserve"
       transform="matrix(1.3333333,0,0,1.3333333,751.49467,1052.2587)"><tspan
         id="tspan67"
         style="font-variant:normal;font-weight:normal;font-stretch:condensed;font-size:25px;font-family:Impact;writing-mode:lr-tb;fill:#30986d;fill-opacity:1;fill-rule:nonzero;stroke:none"
         x="0"
         dx="0 0 0.0099999998 -0.0074999998 0 -0.0049999999"
         y="0">SOCIAL</tspan></text>
    <text
       id="text68"
       xml:space="preserve"
       transform="matrix(1.3333333,0,0,1.3333333,751.49467,1088.2587)"><tspan
         id="tspan68"
         style="font-variant:normal;font-weight:normal;font-stretch:condensed;font-size:25px;font-family:Impact;writing-mode:lr-tb;fill:#30986d;fill-opacity:1;fill-rule:nonzero;stroke:none"
         x="0"
         dx="0 -0.0074999998 0 -0.0099999998"
         y="0">CARD</tspan></text>
    <path
       id="path68"
       d="M 597.188,1295.84 C 928.849,1357.01 1247.77,1137.4 1308.94,805.741 1370.11,474.08 1150.5,155.154 818.837,93.9882 487.175,32.8225 168.25,252.431 107.084,584.092 45.9181,915.753 265.526,1234.68 597.188,1295.84 Z M 258.622,949.32 1112.86,374.352 C 1037.94,279.626 929.684,210.598 801.685,186.992 521.354,135.293 251.787,320.913 200.088,601.244 177.195,725.375 200.834,847.395 258.622,949.32 Z M 1163.68,451.915 311.363,1025.59 c 74.526,89.52 179.575,154.49 302.976,177.25 280.332,51.7 549.901,-133.92 601.601,-414.251 22.04,-119.533 0.94,-237.109 -52.26,-336.674 z"
       style="fill:#30986d;fill-opacity:1;fill-rule:evenodd;stroke:none"
       transform="matrix(1.3333333,0,0,-1.3333333,0,1889.92)" />
  </g>
</svg>
